# xmcd CD database file
#
# Track frame offsets:
#	150
#	24587
#	56040
#	77037
#	96092
#	117732
#	141930
#	162322
#	183230
#	211537
#
# Disc length: 3054 seconds
#
# Revision: 0
# Processed by: cddbd v1.4PL0 Copyright (c) Steve Scherf et al.
# Submitted via: CDex 1.50
#
DISCID=850bec0a
DTITLE=Manuel Santos and Bambule - Mas Que La Fuerza
DYEAR=1996
DGENRE=Salsa
TTITLE0=La Negra
TTITLE1=Vaya Uno A Saber
TTITLE2=Un Dia Domingo En El Cielo
TTITLE3=El Tren Del Amor
TTITLE4=El Incostante
TTITLE5=Ese Amor
TTITLE6=La Gran Mesa De Piedra Dura
TTITLE7=El Elvido
TTITLE8=El Viento En La Isla
TTITLE9=Algo Mas Que La Fuerza
EXTD=YEAR: 1996
EXTT0=
EXTT1=
EXTT2=
EXTT3=
EXTT4=
EXTT5=
EXTT6=
EXTT7=
EXTT8=
EXTT9=
PLAYORDER=
